# xmcd
#
# Track frame offsets: 
#        150
#        102028
#        203380
#
# Disc length: 3009 seconds
#
# Revision: 2
# Processed by: cddbd v1.5.2PL0 Copyright (c) Steve Scherf et al.
# Submitted via: ExactAudioCopy v0.99pb4
#
DISCID=170bbf03
DTITLE=Hubert Noi and Howie B - Music For Astronauts And Cosmonauts [CD2
DTITLE=)
DYEAR=2007
DGENRE=Electronic
TTITLE0=Evening
TTITLE1=Night
TTITLE2=Into landing
EXTD=
EXTT0=
EXTT1=
EXTT2=
PLAYORDER=
